<?xml version="1.0" encoding="UTF-8" standalone="no"?>
<svg
   version="1.1"
   x="0px"
   y="0px"
   viewBox="0 0 7720.438 1920"
   xml:space="preserve"
   id="svg472"
   sodipodi:docname="IC_SVG.svg"
   width="7720.438"
   height="1920"
   inkscape:version="1.2.2 (732a01da63, 2022-12-09)"
   xmlns:inkscape="http://www.inkscape.org/namespaces/inkscape"
   xmlns:sodipodi="http://sodipodi.sourceforge.net/DTD/sodipodi-0.dtd"
   xmlns="http://www.w3.org/2000/svg"
   xmlns:svg="http://www.w3.org/2000/svg"><defs
   id="defs476" /><sodipodi:namedview
   id="namedview474"
   pagecolor="#ffffff"
   bordercolor="#000000"
   borderopacity="0.25"
   inkscape:showpageshadow="2"
   inkscape:pageopacity="0.0"
   inkscape:pagecheckerboard="0"
   inkscape:deskcolor="#d1d1d1"
   showgrid="false"
   inkscape:zoom="0.1005"
   inkscape:cx="1771.1443"
   inkscape:cy="-800.99502"
   inkscape:window-width="1920"
   inkscape:window-height="991"
   inkscape:window-x="-9"
   inkscape:window-y="-9"
   inkscape:window-maximized="1"
   inkscape:current-layer="svg472" />

	<view
   id="view-logo-ic"
   viewBox="0 0 235 60"
   preserveAspectRatio="xMidYMid meet"
   zoomAndPan="magnify" />
	<view
   id="view-logo-unicamp"
   viewBox="235 0 60 60"
   preserveAspectRatio="xMidYMid meet"
   zoomAndPan="magnify" />
	<view
   id="view-arrow-down-gray-light"
   viewBox="295 0 17 10"
   preserveAspectRatio="xMidYMid meet"
   zoomAndPan="magnify" />
	<view
   id="view-arrow-down-gray-dark"
   viewBox="295 10 17 10"
   preserveAspectRatio="xMidYMid meet"
   zoomAndPan="magnify" />
	<view
   id="view-arrow-down-blue"
   viewBox="295 251 17 10"
   preserveAspectRatio="xMidYMid meet"
   zoomAndPan="magnify" />
	<view
   id="view-corner-menu"
   viewBox="295 20 17 10"
   preserveAspectRatio="xMidYMid meet"
   zoomAndPan="magnify" />
	<view
   id="view-contrast-gray-light"
   viewBox="295 30 17 17"
   preserveAspectRatio="xMidYMid meet"
   zoomAndPan="magnify" />
	<view
   id="view-contrast-gray-dark"
   viewBox="295 47 17 17"
   preserveAspectRatio="xMidYMid meet"
   zoomAndPan="magnify" />
	<view
   id="view-btn-menu"
   viewBox="295 64 17 17"
   preserveAspectRatio="xMidYMid meet"
   zoomAndPan="magnify" />
	<view
   id="view-search-blue"
   viewBox="295 81 17 17"
   preserveAspectRatio="xMidYMid meet"
   zoomAndPan="magnify" />
	<view
   id="view-search-gray"
   viewBox="295 98 17 17"
   preserveAspectRatio="xMidYMid meet"
   zoomAndPan="magnify" />
	<view
   id="view-facebook-gray-light"
   viewBox="312 0 17 17"
   preserveAspectRatio="xMidYMid meet"
   zoomAndPan="magnify" />
	<view
   id="view-facebook-gray-dark"
   viewBox="312 17 17 17"
   preserveAspectRatio="xMidYMid meet"
   zoomAndPan="magnify" />
	<view
   id="view-twitter-gray-light"
   viewBox="312 34 17 17"
   preserveAspectRatio="xMidYMid meet"
   zoomAndPan="magnify" />
	<view
   id="view-twitter-gray-dark"
   viewBox="312 51 17 17"
   preserveAspectRatio="xMidYMid meet"
   zoomAndPan="magnify" />
	<view
   id="view-linkedin-gray-light"
   viewBox="312 68 17 17"
   preserveAspectRatio="xMidYMid meet"
   zoomAndPan="magnify" />
	<view
   id="view-linkedin-gray-dark"
   viewBox="312 85 17 17"
   preserveAspectRatio="xMidYMid meet"
   zoomAndPan="magnify" />
	<view
   id="view-slider-nav-arrow-down"
   viewBox="329 0 30 14"
   preserveAspectRatio="xMidYMid meet"
   zoomAndPan="magnify" />
	<view
   id="view-slider-nav-arrow-up"
   viewBox="329 14 30 14"
   preserveAspectRatio="xMidYMid meet"
   zoomAndPan="magnify" />
	<view
   id="view-arrow-right-gray-light"
   viewBox="312 102 17 17"
   preserveAspectRatio="xMidYMid meet"
   zoomAndPan="magnify" />
	<view
   id="view-arrow-right-gray-dark"
   viewBox="312 119 17 17"
   preserveAspectRatio="xMidYMid meet"
   zoomAndPan="magnify" />
	<view
   id="view-arrow-right-blue"
   viewBox="312 136 17 17"
   preserveAspectRatio="xMidYMid meet"
   zoomAndPan="magnify" />
	<view
   id="view-arrow-right-white"
   viewBox="312 153 17 17"
   preserveAspectRatio="xMidYMid meet"
   zoomAndPan="magnify" />
	<view
   id="view-youtube-light"
   viewBox="295 115 17 17"
   preserveAspectRatio="xMidYMid meet"
   zoomAndPan="magnify" />
	<view
   id="view-youtube-dark"
   viewBox="295 132 17 17"
   preserveAspectRatio="xMidYMid meet"
   zoomAndPan="magnify" />
	<view
   id="view-play-video"
   viewBox="295 149 17 17"
   preserveAspectRatio="xMidYMid meet"
   zoomAndPan="magnify" />
	<view
   id="view-ic-clock"
   viewBox="295 166 17 17"
   preserveAspectRatio="xMidYMid meet"
   zoomAndPan="magnify" />
	<view
   id="view-ic-place"
   viewBox="295 183 17 17"
   preserveAspectRatio="xMidYMid meet"
   zoomAndPan="magnify" />
	<view
   id="view-ic-graduacao"
   viewBox="329 28 30 30"
   preserveAspectRatio="xMidYMid meet"
   zoomAndPan="magnify" />
	<view
   id="view-ic-pos-graduacao"
   viewBox="329 58 30 30"
   preserveAspectRatio="xMidYMid meet"
   zoomAndPan="magnify" />
	<view
   id="view-ic-extensao"
   viewBox="329 88 30 30"
   preserveAspectRatio="xMidYMid meet"
   zoomAndPan="magnify" />
	<view
   id="view-ic-pesquisa"
   viewBox="329 118 30 30"
   preserveAspectRatio="xMidYMid meet"
   zoomAndPan="magnify" />
	<view
   id="view-ic-plus-gray-light"
   viewBox="295 200 17 17"
   preserveAspectRatio="xMidYMid meet"
   zoomAndPan="magnify" />
	<view
   id="view-ic-plus-gray-dark"
   viewBox="295 217 17 17"
   preserveAspectRatio="xMidYMid meet"
   zoomAndPan="magnify" />
	<view
   id="view-buildbox-white"
   viewBox="359 0 50 16"
   preserveAspectRatio="xMidYMid meet"
   zoomAndPan="magnify" />
	<view
   id="view-buildbox-gray"
   viewBox="359 16 50 16"
   preserveAspectRatio="xMidYMid meet"
   zoomAndPan="magnify" />
	<view
   id="view-close-menu"
   viewBox="295 234 17 17"
   preserveAspectRatio="xMidYMid meet"
   zoomAndPan="magnify" />
	<view
   id="view-logo-symbol"
   viewBox="359 32 50 41"
   preserveAspectRatio="xMidYMid meet"
   zoomAndPan="magnify" />
	<view
   id="view-chev-right-gray"
   viewBox="295 261 17 17"
   preserveAspectRatio="xMidYMid meet"
   zoomAndPan="magnify" />
	<view
   id="view-chev-right-gray-dark"
   viewBox="295 278 17 17"
   preserveAspectRatio="xMidYMid meet"
   zoomAndPan="magnify" />
	<view
   id="view-chev-right-white"
   viewBox="295 295 17 17"
   preserveAspectRatio="xMidYMid meet"
   zoomAndPan="magnify" />
	<view
   id="view-chev-left-gray"
   viewBox="295 312 17 17"
   preserveAspectRatio="xMidYMid meet"
   zoomAndPan="magnify" />

	
	
	
	
	
	
	
	
	
	
	
	
	
	
	
	
	
	
	
	
	
	
	
	
	
	
	
	
	
	
	
	
	
	
	
	
	
	
	
	
	
	
<g
   id="logo-ic"
   transform="matrix(33.092037,0,0,33.092037,-28.128445,-32.76111)">
		<rect
   x="90.082001"
   y="6.8709998"
   width="3.2390001"
   height="14.554"
   id="rect2" />
		<path
   d="m 105.082,21.425 v -6.827 c 0,-1.486 -0.298,-2.556 -0.895,-3.209 -0.596,-0.653 -1.434,-0.98 -2.514,-0.98 -0.64,0 -1.221,0.123 -1.744,0.37 -0.523,0.246 -0.971,0.606 -1.344,1.08 l -0.11,-1.25 h -2.919 v 10.816 h 3.109 v -7.597 c 0.366,-0.6 0.92,-0.9 1.659,-0.9 0.56,0 0.971,0.118 1.235,0.355 0.264,0.237 0.395,0.668 0.395,1.294 v 6.847 z"
   id="path4" />
		<path
   d="m 112.32,19.161 c -0.27,0.19 -0.651,0.285 -1.145,0.285 -0.54,0 -0.98,-0.123 -1.319,-0.37 -0.339,-0.247 -0.52,-0.616 -0.54,-1.11 h -2.939 c 0,0.6 0.186,1.181 0.56,1.744 0.374,0.563 0.918,1.023 1.634,1.379 0.716,0.356 1.561,0.535 2.534,0.535 0.926,0 1.739,-0.143 2.439,-0.43 0.7,-0.286 1.24,-0.683 1.619,-1.19 0.38,-0.506 0.57,-1.076 0.57,-1.709 0,-0.713 -0.178,-1.298 -0.535,-1.754 -0.356,-0.456 -0.833,-0.811 -1.429,-1.065 -0.596,-0.254 -1.318,-0.456 -2.164,-0.61 -0.686,-0.126 -1.176,-0.285 -1.469,-0.475 -0.293,-0.19 -0.44,-0.438 -0.44,-0.745 0,-0.313 0.128,-0.57 0.385,-0.77 0.256,-0.2 0.595,-0.3 1.015,-0.3 0.52,0 0.901,0.116 1.145,0.35 0.243,0.233 0.365,0.563 0.365,0.99 h 3.119 c 0,-0.686 -0.188,-1.294 -0.565,-1.824 -0.376,-0.53 -0.913,-0.943 -1.609,-1.24 -0.696,-0.296 -1.511,-0.445 -2.444,-0.445 -0.893,0 -1.671,0.153 -2.334,0.46 -0.663,0.306 -1.17,0.72 -1.519,1.24 -0.35,0.52 -0.525,1.086 -0.525,1.699 0,0.893 0.341,1.606 1.025,2.139 0.683,0.533 1.614,0.926 2.794,1.18 0.58,0.126 1.026,0.25 1.339,0.37 0.313,0.12 0.531,0.25 0.655,0.39 0.123,0.14 0.185,0.31 0.185,0.51 -0.002,0.321 -0.137,0.576 -0.407,0.766 z"
   id="path6" />
		<path
   d="m 117.869,18.346 c 0,1.133 0.278,1.963 0.835,2.489 0.557,0.526 1.358,0.79 2.404,0.79 0.666,0 1.273,-0.093 1.819,-0.28 v -2.349 c -0.246,0.047 -0.526,0.07 -0.84,0.07 -0.4,0 -0.683,-0.077 -0.85,-0.23 -0.166,-0.153 -0.25,-0.443 -0.25,-0.87 v -5.088 h 1.809 v -2.269 h -1.809 V 7.93 h -3.119 v 2.679 h -1.479 v 2.269 h 1.479 z"
   id="path8" />
		<rect
   x="124.283"
   y="10.609"
   width="3.1289999"
   height="10.816"
   id="rect10" />
		<path
   d="m 125.832,9.41 c 0.52,0 0.94,-0.148 1.26,-0.445 0.32,-0.296 0.48,-0.678 0.48,-1.145 0,-0.473 -0.16,-0.858 -0.48,-1.155 -0.32,-0.296 -0.74,-0.445 -1.26,-0.445 -0.52,0 -0.938,0.148 -1.255,0.445 -0.316,0.296 -0.475,0.681 -0.475,1.155 0,0.466 0.158,0.848 0.475,1.145 0.317,0.296 0.735,0.445 1.255,0.445 z"
   id="path12" />
		<path
   d="m 130.047,18.346 c 0,1.133 0.278,1.963 0.835,2.489 0.557,0.526 1.358,0.79 2.404,0.79 0.666,0 1.273,-0.093 1.819,-0.28 v -2.349 c -0.246,0.047 -0.526,0.07 -0.84,0.07 -0.4,0 -0.683,-0.077 -0.85,-0.23 -0.166,-0.153 -0.25,-0.443 -0.25,-0.87 v -5.088 h 1.809 v -2.269 h -1.809 V 7.93 h -3.119 v 2.679 h -1.479 v 2.269 h 1.479 z"
   id="path14" />
		<path
   d="m 145.777,10.609 h -3.129 v 7.577 c -0.346,0.613 -0.963,0.92 -1.849,0.92 -0.453,0 -0.808,-0.121 -1.065,-0.365 -0.257,-0.244 -0.385,-0.615 -0.385,-1.115 v -7.017 h -3.119 v 6.997 c 0,1.373 0.32,2.386 0.96,3.039 0.64,0.653 1.523,0.98 2.649,0.98 0.626,0 1.183,-0.115 1.669,-0.345 0.486,-0.23 0.903,-0.561 1.249,-0.995 l 0.09,1.14 h 2.929 z"
   id="path16" />
		<path
   d="m 148.202,18.346 c 0,1.133 0.278,1.963 0.835,2.489 0.557,0.526 1.358,0.79 2.404,0.79 0.666,0 1.273,-0.093 1.819,-0.28 v -2.349 c -0.246,0.047 -0.526,0.07 -0.84,0.07 -0.4,0 -0.683,-0.077 -0.85,-0.23 -0.166,-0.153 -0.25,-0.443 -0.25,-0.87 v -5.088 h 1.809 V 10.609 H 151.32 V 7.93 h -3.119 v 2.679 h -1.479 v 2.269 h 1.479 z"
   id="path18" />
		<path
   d="m 156.185,20.92 c 0.78,0.47 1.713,0.705 2.799,0.705 1.08,0 2.008,-0.235 2.784,-0.705 0.776,-0.47 1.366,-1.121 1.769,-1.954 0.403,-0.833 0.605,-1.779 0.605,-2.839 v -0.21 c 0,-1.066 -0.201,-2.014 -0.605,-2.844 -0.404,-0.83 -0.995,-1.481 -1.774,-1.954 -0.779,-0.473 -1.713,-0.71 -2.799,-0.71 -1.08,0 -2.008,0.236 -2.784,0.71 -0.776,0.474 -1.366,1.126 -1.769,1.959 -0.403,0.833 -0.605,1.779 -0.605,2.839 v 0.21 c 0,1.066 0.201,2.014 0.605,2.844 0.403,0.829 0.994,1.479 1.774,1.949 z m 0.74,-5.003 c 0,-0.893 0.161,-1.614 0.485,-2.164 0.324,-0.55 0.841,-0.825 1.554,-0.825 0.726,0 1.251,0.275 1.574,0.825 0.323,0.55 0.485,1.271 0.485,2.164 v 0.21 c 0,0.906 -0.161,1.629 -0.485,2.169 -0.324,0.54 -0.841,0.81 -1.554,0.81 -0.726,0 -1.251,-0.268 -1.574,-0.805 -0.323,-0.537 -0.485,-1.261 -0.485,-2.174 z"
   id="path20" />
		<path
   d="m 172.061,20.92 c 0.633,0.47 1.389,0.705 2.269,0.705 1.1,0 2.003,-0.456 2.709,-1.369 l 0.15,1.17 h 2.809 V 6.071 h -3.129 v 5.498 c -0.666,-0.773 -1.506,-1.16 -2.519,-1.16 -0.893,0 -1.656,0.23 -2.289,0.69 -0.633,0.46 -1.115,1.106 -1.444,1.939 -0.33,0.833 -0.495,1.799 -0.495,2.899 v 0.21 c 0,1.06 0.165,2.003 0.495,2.829 0.329,0.826 0.811,1.474 1.444,1.944 z m 1.18,-4.983 c 0,-0.926 0.151,-1.659 0.455,-2.199 0.303,-0.54 0.785,-0.81 1.444,-0.81 0.826,0 1.403,0.343 1.729,1.03 v 4.118 c -0.166,0.333 -0.395,0.588 -0.685,0.765 -0.29,0.177 -0.645,0.265 -1.065,0.265 -0.666,0 -1.146,-0.266 -1.439,-0.8 -0.293,-0.533 -0.44,-1.253 -0.44,-2.159 z"
   id="path22" />
		<path
   d="m 184.112,20.92 c 0.826,0.47 1.796,0.705 2.909,0.705 0.98,0 1.836,-0.185 2.569,-0.555 0.733,-0.37 1.289,-0.825 1.669,-1.364 l -1.469,-1.749 c -0.313,0.393 -0.69,0.683 -1.13,0.87 -0.44,0.186 -0.92,0.28 -1.439,0.28 -0.673,0 -1.226,-0.185 -1.659,-0.555 -0.433,-0.37 -0.71,-0.875 -0.83,-1.514 h 6.787 v -1.329 c 0,-1.08 -0.188,-2.018 -0.565,-2.814 -0.376,-0.796 -0.928,-1.409 -1.654,-1.839 -0.726,-0.43 -1.599,-0.645 -2.619,-0.645 -1.066,0 -1.984,0.241 -2.754,0.725 -0.77,0.483 -1.358,1.146 -1.764,1.989 -0.406,0.843 -0.61,1.801 -0.61,2.874 v 0.38 c 0,0.96 0.22,1.839 0.66,2.639 0.44,0.797 1.073,1.432 1.899,1.902 z m 2.549,-7.992 c 0.593,0 1.041,0.158 1.344,0.475 0.303,0.316 0.455,0.755 0.455,1.314 v 0.25 h -3.719 c 0.221,-1.359 0.861,-2.039 1.92,-2.039 z"
   id="path24" />
		<path
   d="m 93.42,29.945 c 0.453,-0.7 1.156,-1.05 2.109,-1.05 0.933,0 1.606,0.208 2.019,0.625 0.413,0.416 0.646,1.058 0.7,1.924 h 3.239 c -0.093,-1.02 -0.378,-1.921 -0.855,-2.704 -0.477,-0.783 -1.145,-1.396 -2.004,-1.839 -0.859,-0.443 -1.893,-0.665 -3.099,-0.665 -1.22,0 -2.288,0.286 -3.204,0.86 -0.916,0.573 -1.624,1.393 -2.124,2.459 -0.5,1.066 -0.75,2.316 -0.75,3.749 v 0.84 c 0,1.446 0.243,2.699 0.73,3.759 0.486,1.06 1.186,1.874 2.099,2.444 0.913,0.57 1.996,0.855 3.249,0.855 1.173,0 2.197,-0.213 3.074,-0.64 0.876,-0.426 1.558,-1.025 2.044,-1.794 0.486,-0.77 0.76,-1.661 0.82,-2.674 h -3.239 c -0.053,0.833 -0.298,1.449 -0.735,1.849 -0.437,0.4 -1.091,0.6 -1.964,0.6 -0.68,0 -1.223,-0.153 -1.629,-0.46 -0.407,-0.306 -0.701,-0.78 -0.885,-1.419 -0.183,-0.64 -0.275,-1.479 -0.275,-2.519 v -0.86 c 0.001,-1.527 0.227,-2.64 0.68,-3.34 z"
   id="path26" />
		<path
   d="m 112.849,35.703 v -0.21 c 0,-1.066 -0.201,-2.014 -0.605,-2.844 -0.403,-0.83 -0.995,-1.481 -1.774,-1.954 -0.78,-0.473 -1.713,-0.71 -2.799,-0.71 -1.08,0 -2.008,0.236 -2.784,0.71 -0.776,0.473 -1.366,1.126 -1.769,1.959 -0.403,0.833 -0.605,1.779 -0.605,2.839 v 0.21 c 0,1.066 0.201,2.014 0.605,2.844 0.403,0.83 0.995,1.479 1.774,1.949 0.78,0.47 1.713,0.705 2.799,0.705 1.08,0 2.008,-0.235 2.784,-0.705 0.776,-0.47 1.366,-1.121 1.769,-1.954 0.403,-0.833 0.605,-1.779 0.605,-2.839 z m -3.119,0 c 0,0.906 -0.161,1.629 -0.485,2.169 -0.324,0.54 -0.841,0.81 -1.554,0.81 -0.726,0 -1.251,-0.268 -1.574,-0.805 -0.323,-0.537 -0.485,-1.261 -0.485,-2.174 v -0.21 c 0,-0.893 0.161,-1.614 0.485,-2.164 0.323,-0.55 0.841,-0.825 1.554,-0.825 0.726,0 1.251,0.275 1.574,0.825 0.323,0.55 0.485,1.271 0.485,2.164 z"
   id="path28" />
		<path
   d="m 124.341,32.784 c 0.273,-0.186 0.603,-0.28 0.99,-0.28 0.333,0 0.605,0.045 0.815,0.135 0.21,0.09 0.371,0.256 0.485,0.5 0.113,0.243 0.17,0.585 0.17,1.025 v 6.837 h 3.129 v -6.837 c 0,-1.479 -0.298,-2.546 -0.895,-3.199 -0.596,-0.653 -1.441,-0.98 -2.534,-0.98 -0.706,0 -1.329,0.141 -1.869,0.425 -0.54,0.284 -0.986,0.688 -1.339,1.215 -0.26,-0.553 -0.63,-0.965 -1.11,-1.235 -0.48,-0.27 -1.053,-0.405 -1.719,-0.405 -0.66,0 -1.25,0.123 -1.769,0.37 -0.52,0.246 -0.96,0.6 -1.319,1.06 l -0.1,-1.23 h -2.929 v 10.816 h 3.119 v -7.557 c 0.173,-0.3 0.396,-0.531 0.67,-0.695 0.273,-0.163 0.593,-0.245 0.96,-0.245 0.333,0 0.606,0.045 0.82,0.135 0.213,0.09 0.376,0.258 0.49,0.505 0.113,0.246 0.17,0.593 0.17,1.04 v 6.817 h 3.119 v -7.217 -0.22 c 0.156,-0.333 0.372,-0.593 0.646,-0.78 z"
   id="path30" />
		<path
   d="m 134.763,30.185 h -2.899 v 14.974 h 3.119 v -5.088 c 0.66,0.753 1.509,1.13 2.549,1.13 0.886,0 1.644,-0.238 2.274,-0.715 0.63,-0.476 1.108,-1.133 1.434,-1.969 0.326,-0.836 0.49,-1.784 0.49,-2.844 v -0.21 c 0,-1.106 -0.161,-2.071 -0.485,-2.894 -0.323,-0.823 -0.801,-1.459 -1.434,-1.909 -0.633,-0.45 -1.399,-0.675 -2.299,-0.675 -1.086,0 -1.966,0.41 -2.639,1.23 z m 0.22,3.269 c 0.153,-0.32 0.371,-0.558 0.655,-0.715 0.284,-0.157 0.645,-0.235 1.085,-0.235 0.653,0 1.131,0.265 1.434,0.795 0.303,0.53 0.455,1.251 0.455,2.164 v 0.21 c 0,0.906 -0.146,1.634 -0.44,2.184 -0.293,0.55 -0.77,0.825 -1.429,0.825 -0.853,0 -1.439,-0.33 -1.759,-0.99 v -4.238 z"
   id="path32" />
		<path
   d="M 152.692,41.001 V 30.185 h -3.129 v 7.577 c -0.346,0.613 -0.963,0.92 -1.849,0.92 -0.453,0 -0.808,-0.121 -1.065,-0.365 -0.256,-0.243 -0.385,-0.615 -0.385,-1.115 v -7.017 h -3.119 v 6.997 c 0,1.373 0.32,2.386 0.96,3.039 0.64,0.653 1.523,0.98 2.649,0.98 0.626,0 1.183,-0.115 1.669,-0.345 0.486,-0.23 0.903,-0.561 1.25,-0.995 l 0.09,1.14 c 0,0 2.929,0 2.929,0 z"
   id="path34" />
		<path
   d="m 160.175,38.572 c -0.246,0.047 -0.526,0.07 -0.84,0.07 -0.4,0 -0.683,-0.077 -0.85,-0.23 -0.166,-0.153 -0.25,-0.443 -0.25,-0.87 v -5.088 h 1.809 v -2.269 h -1.809 v -2.679 h -3.119 v 2.679 h -1.479 v 2.269 h 1.479 v 5.468 c 0,1.133 0.278,1.963 0.835,2.489 0.556,0.526 1.358,0.79 2.404,0.79 0.666,0 1.273,-0.093 1.819,-0.28 z"
   id="path36" />
		<path
   d="m 161.735,31.705 c -0.383,0.533 -0.575,1.126 -0.575,1.779 h 3.109 c 0,-0.393 0.121,-0.695 0.365,-0.905 0.243,-0.21 0.585,-0.315 1.025,-0.315 0.493,0 0.858,0.135 1.095,0.405 0.236,0.27 0.355,0.648 0.355,1.135 v 0.59 h -1.17 c -1.666,0 -2.92,0.308 -3.764,0.925 -0.844,0.617 -1.265,1.494 -1.265,2.634 0,0.62 0.163,1.178 0.49,1.674 0.326,0.496 0.77,0.883 1.329,1.16 0.56,0.276 1.176,0.415 1.849,0.415 1.133,0 2.026,-0.386 2.679,-1.16 0.073,0.373 0.17,0.693 0.29,0.96 h 3.139 v -0.17 c -0.153,-0.286 -0.266,-0.62 -0.34,-1 -0.073,-0.38 -0.11,-0.89 -0.11,-1.529 v -4.478 c 0,-0.833 -0.188,-1.536 -0.565,-2.109 -0.376,-0.573 -0.896,-1.005 -1.559,-1.294 -0.663,-0.29 -1.424,-0.435 -2.284,-0.435 -0.926,0 -1.744,0.153 -2.454,0.46 -0.71,0.307 -1.255,0.724 -1.639,1.258 z m 5.373,6.217 c -0.14,0.26 -0.371,0.481 -0.695,0.665 -0.323,0.183 -0.698,0.275 -1.125,0.275 -0.38,0 -0.685,-0.101 -0.915,-0.305 -0.23,-0.203 -0.345,-0.468 -0.345,-0.795 0,-0.466 0.16,-0.851 0.48,-1.155 0.32,-0.304 0.813,-0.455 1.479,-0.455 h 1.12 v 1.77 z"
   id="path38" />
		<path
   d="m 178.86,42.046 c -0.286,-0.276 -0.643,-0.451 -1.07,-0.525 l 0.08,-0.44 c 0.66,-0.14 1.245,-0.39 1.754,-0.75 0.51,-0.36 0.908,-0.81 1.195,-1.349 0.286,-0.54 0.43,-1.14 0.43,-1.799 h -2.929 c -0.007,0.46 -0.16,0.825 -0.46,1.095 -0.3,0.27 -0.7,0.405 -1.2,0.405 -0.72,0 -1.208,-0.258 -1.464,-0.775 -0.256,-0.517 -0.385,-1.245 -0.385,-2.184 v -0.25 c 0,-0.92 0.128,-1.644 0.385,-2.174 0.256,-0.53 0.738,-0.795 1.444,-0.795 0.533,0 0.945,0.166 1.235,0.5 0.29,0.333 0.438,0.763 0.445,1.289 h 2.929 c 0,-0.886 -0.191,-1.654 -0.575,-2.304 -0.383,-0.65 -0.916,-1.146 -1.599,-1.489 -0.683,-0.343 -1.471,-0.515 -2.364,-0.515 -1.086,0 -2.006,0.236 -2.759,0.71 -0.753,0.473 -1.318,1.123 -1.694,1.949 -0.376,0.826 -0.565,1.769 -0.565,2.829 v 0.25 c 0,0.92 0.143,1.753 0.43,2.499 0.286,0.746 0.715,1.369 1.284,1.869 0.57,0.5 1.271,0.833 2.104,1 l -0.27,1.279 c 0.506,0.033 0.863,0.101 1.07,0.205 0.206,0.103 0.31,0.285 0.31,0.545 0,0.266 -0.09,0.463 -0.27,0.59 -0.18,0.126 -0.426,0.19 -0.74,0.19 l 0.07,1.799 c 0.773,0 1.429,-0.102 1.969,-0.305 0.54,-0.203 0.948,-0.488 1.225,-0.855 0.277,-0.367 0.415,-0.796 0.415,-1.289 0,-0.527 -0.144,-0.929 -0.43,-1.205 z"
   id="path40" />
		<path
   d="m 188.522,40.041 c 0.073,0.373 0.17,0.693 0.29,0.96 h 3.139 v -0.17 c -0.153,-0.286 -0.266,-0.62 -0.34,-1 -0.073,-0.38 -0.11,-0.89 -0.11,-1.529 v -4.478 c 0,-0.833 -0.188,-1.536 -0.565,-2.109 -0.376,-0.573 -0.896,-1.005 -1.559,-1.294 -0.663,-0.29 -1.424,-0.435 -2.284,-0.435 -0.926,0 -1.744,0.153 -2.454,0.46 -0.71,0.307 -1.256,0.726 -1.639,1.26 -0.383,0.533 -0.575,1.126 -0.575,1.779 h 3.109 c 0,-0.393 0.121,-0.695 0.365,-0.905 0.243,-0.21 0.585,-0.315 1.025,-0.315 0.493,0 0.858,0.135 1.095,0.405 0.236,0.27 0.355,0.648 0.355,1.135 v 0.59 h -1.17 c -1.666,0 -2.92,0.308 -3.764,0.925 -0.844,0.617 -1.265,1.494 -1.265,2.634 0,0.62 0.163,1.178 0.49,1.674 0.326,0.496 0.77,0.883 1.329,1.16 0.56,0.276 1.176,0.415 1.849,0.415 1.133,-0.002 2.026,-0.388 2.679,-1.162 z m -3.229,-2.279 c 0,-0.466 0.16,-0.851 0.48,-1.155 0.32,-0.304 0.813,-0.455 1.479,-0.455 h 1.12 v 1.769 c -0.14,0.26 -0.371,0.481 -0.695,0.665 -0.323,0.183 -0.698,0.275 -1.125,0.275 -0.38,0 -0.685,-0.101 -0.915,-0.305 -0.229,-0.202 -0.344,-0.467 -0.344,-0.794 z"
   id="path42" />
		<path
   d="m 188.847,26.317 c -0.156,0.16 -0.355,0.24 -0.595,0.24 -0.213,0 -0.42,-0.035 -0.62,-0.105 -0.2,-0.07 -0.433,-0.171 -0.7,-0.305 -0.313,-0.146 -0.571,-0.255 -0.775,-0.325 -0.203,-0.07 -0.425,-0.105 -0.665,-0.105 -0.433,0 -0.823,0.125 -1.17,0.375 -0.346,0.25 -0.618,0.583 -0.815,1 -0.196,0.416 -0.295,0.861 -0.295,1.334 l 1.769,0.1 c 0,-0.293 0.075,-0.518 0.225,-0.675 0.15,-0.156 0.341,-0.235 0.575,-0.235 0.22,0 0.418,0.032 0.595,0.095 0.177,0.063 0.395,0.161 0.655,0.295 0.28,0.146 0.53,0.258 0.75,0.335 0.22,0.077 0.473,0.115 0.76,0.115 0.433,0 0.826,-0.123 1.18,-0.37 0.353,-0.246 0.628,-0.576 0.825,-0.99 0.196,-0.413 0.295,-0.863 0.295,-1.349 l -1.759,-0.11 c 0,0.293 -0.078,0.52 -0.235,0.68 z"
   id="path44" />
		<path
   d="m 202.688,38.542 c 0.403,-0.833 0.605,-1.779 0.605,-2.839 v -0.21 c 0,-1.066 -0.201,-2.014 -0.605,-2.844 -0.403,-0.83 -0.995,-1.481 -1.774,-1.954 -0.78,-0.473 -1.713,-0.71 -2.799,-0.71 -1.08,0 -2.008,0.236 -2.784,0.71 -0.776,0.473 -1.366,1.126 -1.769,1.959 -0.403,0.833 -0.605,1.779 -0.605,2.839 v 0.21 c 0,1.066 0.201,2.014 0.605,2.844 0.404,0.83 0.995,1.479 1.774,1.949 0.78,0.47 1.713,0.705 2.799,0.705 1.08,0 2.008,-0.235 2.784,-0.705 0.776,-0.47 1.365,-1.121 1.769,-1.954 z m -2.514,-2.839 c 0,0.906 -0.161,1.629 -0.485,2.169 -0.324,0.54 -0.841,0.81 -1.554,0.81 -0.726,0 -1.251,-0.268 -1.574,-0.805 -0.323,-0.537 -0.485,-1.261 -0.485,-2.174 v -0.21 c 0,-0.893 0.161,-1.614 0.485,-2.164 0.323,-0.55 0.841,-0.825 1.554,-0.825 0.726,0 1.251,0.275 1.574,0.825 0.323,0.55 0.485,1.271 0.485,2.164 z"
   id="path46" />
		<path
   d="m 93.318,54.551 c 0,0.301 -0.06,0.556 -0.18,0.767 -0.12,0.211 -0.287,0.369 -0.5,0.476 -0.213,0.106 -0.459,0.16 -0.738,0.16 -0.276,0 -0.521,-0.053 -0.734,-0.16 -0.213,-0.107 -0.38,-0.266 -0.5,-0.476 -0.12,-0.211 -0.18,-0.466 -0.18,-0.767 v -3.584 h -0.443 v 3.584 c 0,0.385 0.08,0.712 0.24,0.98 0.16,0.268 0.38,0.468 0.66,0.602 0.28,0.133 0.599,0.2 0.958,0.2 0.351,0 0.668,-0.067 0.951,-0.202 0.283,-0.135 0.505,-0.335 0.669,-0.602 0.164,-0.266 0.245,-0.592 0.245,-0.978 v -3.584 h -0.447 z"
   id="path48" />
		<polygon
   points="98.732,56.26 99.183,56.26 99.183,50.967 98.736,50.967 98.736,55.496 95.693,50.967 95.242,50.967 95.242,56.26 95.693,56.26 95.693,51.73 "
   id="polygon50" />
		<rect
   x="100.853"
   y="50.966999"
   width="0.447"
   height="5.2930002"
   id="rect52" />
		<polygon
   points="104.439,56.26 104.803,56.26 106.773,50.967 106.286,50.967 104.618,55.602 104.588,55.714 104.556,55.602 102.894,50.967 102.407,50.967 104.374,56.26 "
   id="polygon54" />
		<polygon
   points="110.701,53.34 108.229,53.34 108.229,51.348 111.053,51.348 111.053,50.967 108.229,50.967 107.782,50.967 107.782,56.26 108.094,56.26 111.072,56.26 111.072,55.882 108.229,55.882 108.229,53.722 110.701,53.722 "
   id="polygon56" />
		<path
   d="m 115.223,53.659 c 0.166,-0.137 0.294,-0.303 0.385,-0.496 0.091,-0.194 0.136,-0.406 0.136,-0.636 0,-0.332 -0.073,-0.615 -0.218,-0.849 -0.145,-0.234 -0.353,-0.411 -0.622,-0.531 -0.269,-0.12 -0.588,-0.18 -0.956,-0.18 h -1.719 v 5.293 h 0.447 v -2.207 h 1.541 l 1.276,2.207 h 0.48 v -0.047 l -1.327,-2.254 c 0.219,-0.063 0.411,-0.163 0.577,-0.3 z m -1.176,0.016 h -1.371 v -2.326 h 1.272 c 0.288,0 0.533,0.047 0.734,0.141 0.201,0.095 0.354,0.23 0.458,0.407 0.104,0.177 0.156,0.387 0.156,0.629 0,0.206 -0.048,0.396 -0.143,0.571 -0.096,0.175 -0.238,0.314 -0.425,0.42 -0.187,0.105 -0.414,0.158 -0.681,0.158 z"
   id="path58" />
		<path
   d="m 119.855,53.74 c -0.255,-0.136 -0.579,-0.257 -0.974,-0.363 -0.354,-0.095 -0.634,-0.196 -0.84,-0.305 -0.206,-0.109 -0.354,-0.23 -0.443,-0.362 -0.09,-0.132 -0.135,-0.286 -0.135,-0.46 0,-0.182 0.051,-0.346 0.153,-0.493 0.102,-0.146 0.253,-0.263 0.453,-0.351 0.2,-0.087 0.441,-0.131 0.722,-0.131 0.281,0 0.525,0.052 0.731,0.155 0.206,0.103 0.363,0.246 0.473,0.427 0.109,0.182 0.164,0.388 0.164,0.618 h 0.447 c 0,-0.296 -0.075,-0.564 -0.224,-0.804 -0.149,-0.24 -0.361,-0.429 -0.636,-0.569 -0.275,-0.139 -0.593,-0.209 -0.954,-0.209 -0.344,0 -0.651,0.057 -0.922,0.173 -0.27,0.115 -0.48,0.276 -0.631,0.482 -0.15,0.206 -0.226,0.443 -0.226,0.712 0,0.269 0.068,0.497 0.204,0.685 0.136,0.188 0.328,0.346 0.578,0.473 0.25,0.127 0.566,0.244 0.949,0.351 0.371,0.104 0.66,0.21 0.867,0.318 0.207,0.108 0.356,0.23 0.446,0.367 0.09,0.137 0.135,0.305 0.135,0.504 0,0.196 -0.057,0.37 -0.169,0.522 -0.113,0.151 -0.273,0.268 -0.48,0.351 -0.207,0.083 -0.448,0.124 -0.722,0.124 -0.262,0 -0.508,-0.041 -0.74,-0.122 -0.231,-0.081 -0.421,-0.212 -0.567,-0.393 -0.147,-0.181 -0.22,-0.411 -0.22,-0.692 h -0.451 c 0,0.354 0.096,0.649 0.287,0.887 0.191,0.238 0.438,0.413 0.738,0.527 0.3,0.114 0.618,0.171 0.952,0.171 0.351,0 0.665,-0.056 0.942,-0.167 0.276,-0.111 0.492,-0.271 0.647,-0.48 0.155,-0.208 0.233,-0.453 0.233,-0.734 0,-0.279 -0.067,-0.516 -0.202,-0.712 -0.137,-0.198 -0.331,-0.364 -0.585,-0.5 z"
   id="path60" />
		<rect
   x="121.925"
   y="50.966999"
   width="0.447"
   height="5.2930002"
   id="rect62" />
		<path
   d="m 126.683,51.265 c -0.343,-0.199 -0.733,-0.298 -1.169,-0.298 h -1.033 -0.447 v 5.293 h 0.247 1.2 c 0.451,0 0.849,-0.099 1.196,-0.298 0.347,-0.199 0.616,-0.48 0.807,-0.844 0.191,-0.364 0.287,-0.784 0.287,-1.261 V 53.37 c 0,-0.475 -0.096,-0.895 -0.287,-1.26 -0.19,-0.365 -0.458,-0.647 -0.801,-0.845 z m 0.646,2.592 c 0,0.4 -0.075,0.752 -0.225,1.058 -0.15,0.306 -0.365,0.543 -0.644,0.713 -0.279,0.17 -0.605,0.255 -0.978,0.255 h -1 V 51.35 h 1.033 c 0.361,0 0.679,0.083 0.952,0.249 0.274,0.166 0.486,0.401 0.636,0.705 0.15,0.304 0.225,0.657 0.225,1.06 z"
   id="path64" />
		<path
   d="m 130.904,50.967 h -0.327 l -2,5.293 h 0.465 l 0.546,-1.483 h 2.406 l 0.546,1.483 h 0.465 l -2.003,-5.293 z m -1.174,3.428 1.062,-2.883 1.061,2.883 z"
   id="path66" />
		<path
   d="m 136.661,51.265 c -0.343,-0.199 -0.733,-0.298 -1.169,-0.298 h -1.033 -0.447 v 5.293 h 0.247 1.2 c 0.451,0 0.849,-0.099 1.196,-0.298 0.347,-0.199 0.616,-0.48 0.807,-0.844 0.191,-0.364 0.287,-0.784 0.287,-1.261 V 53.37 c 0,-0.475 -0.096,-0.895 -0.287,-1.26 -0.19,-0.365 -0.458,-0.647 -0.801,-0.845 z m 0.646,2.592 c 0,0.4 -0.075,0.752 -0.225,1.058 -0.15,0.306 -0.365,0.543 -0.644,0.713 -0.279,0.17 -0.605,0.255 -0.978,0.255 h -1 V 51.35 h 1.033 c 0.361,0 0.679,0.083 0.952,0.249 0.274,0.166 0.486,0.401 0.636,0.705 0.15,0.304 0.225,0.657 0.225,1.06 z"
   id="path68" />
		<polygon
   points="142.034,53.34 139.562,53.34 139.562,51.348 142.387,51.348 142.387,50.967 139.562,50.967 139.115,50.967 139.115,56.26 139.427,56.26 142.405,56.26 142.405,55.882 139.562,55.882 139.562,53.722 142.034,53.722 "
   id="polygon70" />
		<polygon
   points="148.53,53.34 146.058,53.34 146.058,51.348 148.882,51.348 148.882,50.967 146.058,50.967 145.611,50.967 145.611,56.26 145.923,56.26 148.901,56.26 148.901,55.882 146.058,55.882 146.058,53.722 148.53,53.722 "
   id="polygon72" />
		<path
   d="m 152.731,53.74 c -0.255,-0.136 -0.579,-0.257 -0.974,-0.363 -0.354,-0.095 -0.634,-0.196 -0.84,-0.305 -0.206,-0.109 -0.354,-0.23 -0.443,-0.362 -0.09,-0.132 -0.135,-0.286 -0.135,-0.46 0,-0.182 0.051,-0.346 0.153,-0.493 0.102,-0.146 0.253,-0.263 0.453,-0.351 0.2,-0.087 0.441,-0.131 0.722,-0.131 0.281,0 0.525,0.052 0.731,0.155 0.206,0.103 0.363,0.246 0.473,0.427 0.109,0.182 0.164,0.388 0.164,0.618 h 0.447 c 0,-0.296 -0.075,-0.564 -0.224,-0.804 -0.149,-0.24 -0.361,-0.429 -0.636,-0.569 -0.275,-0.139 -0.593,-0.209 -0.954,-0.209 -0.344,0 -0.651,0.057 -0.922,0.173 -0.27,0.115 -0.48,0.276 -0.631,0.482 -0.15,0.206 -0.226,0.443 -0.226,0.712 0,0.269 0.068,0.497 0.204,0.685 0.136,0.188 0.328,0.346 0.578,0.473 0.25,0.127 0.566,0.244 0.949,0.351 0.371,0.104 0.66,0.21 0.867,0.318 0.207,0.108 0.356,0.23 0.446,0.367 0.09,0.137 0.135,0.305 0.135,0.504 0,0.196 -0.057,0.37 -0.169,0.522 -0.113,0.151 -0.273,0.268 -0.48,0.351 -0.207,0.083 -0.448,0.124 -0.722,0.124 -0.262,0 -0.508,-0.041 -0.74,-0.122 -0.231,-0.081 -0.421,-0.212 -0.567,-0.393 -0.147,-0.181 -0.22,-0.411 -0.22,-0.692 h -0.451 c 0,0.354 0.096,0.649 0.287,0.887 0.191,0.238 0.438,0.413 0.738,0.527 0.3,0.114 0.618,0.171 0.952,0.171 0.351,0 0.665,-0.056 0.942,-0.167 0.276,-0.111 0.492,-0.271 0.647,-0.48 0.155,-0.208 0.233,-0.453 0.233,-0.734 0,-0.279 -0.067,-0.516 -0.202,-0.712 -0.137,-0.198 -0.331,-0.364 -0.585,-0.5 z"
   id="path74" />
		<polygon
   points="158.291,50.967 156.477,50.967 154.219,50.967 154.219,51.348 156.033,51.348 156.033,56.26 156.477,56.26 156.477,51.348 158.291,51.348 "
   id="polygon76" />
		<path
   d="m 160.786,50.967 h -0.327 l -2,5.293 h 0.465 l 0.546,-1.483 h 2.406 l 0.546,1.483 h 0.465 l -2.003,-5.293 z m -1.174,3.428 1.061,-2.883 1.062,2.883 z"
   id="path78" />
		<path
   d="m 166.544,51.265 c -0.343,-0.199 -0.733,-0.298 -1.169,-0.298 h -1.033 -0.447 v 5.293 h 0.247 1.2 c 0.451,0 0.849,-0.099 1.196,-0.298 0.347,-0.199 0.616,-0.48 0.807,-0.844 0.191,-0.364 0.287,-0.784 0.287,-1.261 V 53.37 c 0,-0.475 -0.096,-0.895 -0.287,-1.26 -0.191,-0.365 -0.458,-0.647 -0.801,-0.845 z m 0.645,2.592 c 0,0.4 -0.075,0.752 -0.225,1.058 -0.15,0.306 -0.365,0.543 -0.644,0.713 -0.279,0.17 -0.605,0.255 -0.978,0.255 h -1 V 51.35 h 1.033 c 0.361,0 0.679,0.083 0.952,0.249 0.274,0.166 0.486,0.401 0.636,0.705 0.15,0.304 0.225,0.657 0.225,1.06 z"
   id="path80" />
		<path
   d="m 172.193,54.551 c 0,0.301 -0.06,0.556 -0.18,0.767 -0.12,0.211 -0.287,0.369 -0.5,0.476 -0.213,0.106 -0.459,0.16 -0.738,0.16 -0.276,0 -0.521,-0.053 -0.734,-0.16 -0.213,-0.107 -0.38,-0.266 -0.5,-0.476 -0.12,-0.211 -0.18,-0.466 -0.18,-0.767 v -3.584 h -0.444 v 3.584 c 0,0.385 0.08,0.712 0.24,0.98 0.16,0.268 0.38,0.468 0.66,0.602 0.28,0.133 0.599,0.2 0.958,0.2 0.351,0 0.668,-0.067 0.951,-0.202 0.282,-0.135 0.505,-0.335 0.669,-0.602 0.164,-0.266 0.246,-0.592 0.246,-0.978 v -3.584 h -0.447 v 3.584 z"
   id="path82" />
		<path
   d="m 175.805,50.967 h -0.327 l -2,5.293 h 0.465 l 0.546,-1.483 h 2.406 l 0.546,1.483 h 0.465 l -2.003,-5.293 z m -1.174,3.428 1.062,-2.883 1.062,2.883 z"
   id="path84" />
		<polygon
   points="178.914,56.26 179.231,56.26 181.976,56.26 181.976,55.882 179.365,55.882 179.365,50.967 178.914,50.967 "
   id="polygon86" />
		<path
   d="m 187.75,51.265 c -0.343,-0.199 -0.733,-0.298 -1.169,-0.298 h -1.033 -0.447 v 5.293 h 0.247 1.2 c 0.451,0 0.849,-0.099 1.196,-0.298 0.347,-0.199 0.616,-0.48 0.807,-0.844 0.191,-0.364 0.287,-0.784 0.287,-1.261 V 53.37 c 0,-0.475 -0.096,-0.895 -0.287,-1.26 -0.191,-0.365 -0.458,-0.647 -0.801,-0.845 z m 0.645,2.592 c 0,0.4 -0.075,0.752 -0.225,1.058 -0.15,0.306 -0.365,0.543 -0.644,0.713 -0.279,0.17 -0.605,0.255 -0.978,0.255 h -1 V 51.35 h 1.033 c 0.361,0 0.679,0.083 0.952,0.249 0.274,0.166 0.486,0.401 0.636,0.705 0.15,0.304 0.225,0.657 0.225,1.06 z"
   id="path88" />
		<polygon
   points="193.122,53.34 190.65,53.34 190.65,51.348 193.475,51.348 193.475,50.967 190.65,50.967 190.203,50.967 190.203,56.26 190.516,56.26 193.493,56.26 193.493,55.882 190.65,55.882 190.65,53.722 193.122,53.722 "
   id="polygon90" />
		<path
   d="m 197.143,52.224 c 0.126,-0.3 0.308,-0.534 0.545,-0.7 0.238,-0.166 0.517,-0.249 0.84,-0.249 0.865,0 1.355,0.449 1.469,1.345 h 0.447 c -0.036,-0.364 -0.134,-0.674 -0.294,-0.932 -0.16,-0.258 -0.377,-0.455 -0.651,-0.591 -0.274,-0.136 -0.597,-0.203 -0.971,-0.203 -0.407,0 -0.763,0.099 -1.069,0.298 -0.305,0.199 -0.54,0.478 -0.705,0.838 -0.165,0.36 -0.247,0.778 -0.247,1.253 v 0.662 c 0,0.473 0.082,0.889 0.247,1.251 0.165,0.361 0.398,0.641 0.698,0.84 0.3,0.199 0.649,0.298 1.047,0.298 0.574,0 1.028,-0.151 1.361,-0.453 0.333,-0.302 0.527,-0.725 0.583,-1.271 h -0.447 c -0.058,0.453 -0.207,0.791 -0.447,1.013 -0.24,0.221 -0.59,0.333 -1.05,0.333 -0.323,0 -0.6,-0.085 -0.833,-0.256 -0.233,-0.171 -0.409,-0.408 -0.531,-0.712 -0.122,-0.304 -0.182,-0.651 -0.182,-1.042 v -0.669 c 0,-0.402 0.064,-0.752 0.19,-1.053 z"
   id="path92" />
		<path
   d="m 203.524,50.967 h -0.327 l -2,5.293 h 0.465 l 0.546,-1.483 h 2.406 l 0.546,1.483 h 0.465 l -2.003,-5.293 z m -1.174,3.428 1.062,-2.883 1.061,2.883 z"
   id="path94" />
		<polygon
   points="209.179,55.634 207.223,50.967 207.03,50.967 206.634,50.967 206.634,56.26 207.081,56.26 207.081,53.944 207.041,51.606 209.004,56.26 209.35,56.26 211.324,51.592 211.284,53.944 211.284,56.26 211.731,56.26 211.731,50.967 211.134,50.967 "
   id="polygon96" />
		<path
   d="m 216.072,51.165 c -0.267,-0.132 -0.59,-0.198 -0.971,-0.198 h -1.803 v 5.293 h 0.447 v -2.156 h 1.356 c 0.383,0 0.708,-0.062 0.974,-0.185 0.267,-0.124 0.468,-0.302 0.604,-0.534 0.136,-0.233 0.203,-0.513 0.203,-0.84 0,-0.315 -0.068,-0.591 -0.205,-0.827 -0.136,-0.237 -0.338,-0.421 -0.605,-0.553 z m 0.033,2.235 c -0.221,0.215 -0.555,0.322 -1.003,0.322 h -1.356 v -2.374 h 1.356 c 0.301,0 0.551,0.054 0.751,0.161 0.2,0.108 0.347,0.252 0.442,0.433 0.094,0.18 0.141,0.383 0.141,0.609 0,0.352 -0.111,0.635 -0.331,0.849 z"
   id="path98" />
		<rect
   x="218.20399"
   y="50.966999"
   width="0.447"
   height="5.2930002"
   id="rect100" />
		<polygon
   points="223.804,56.26 224.255,56.26 224.255,50.967 223.808,50.967 223.808,55.496 220.765,50.967 220.314,50.967 220.314,56.26 220.765,56.26 220.765,51.73 "
   id="polygon102" />
		<path
   d="m 227.594,50.967 h -0.327 l -2,5.293 h 0.465 l 0.546,-1.483 h 2.406 l 0.546,1.483 h 0.465 l -2.003,-5.293 z m -1.174,3.428 1.062,-2.883 1.062,2.883 z"
   id="path104" />
		<path
   d="m 233.948,54.238 c -0.135,-0.196 -0.329,-0.363 -0.583,-0.498 -0.254,-0.135 -0.579,-0.257 -0.974,-0.363 -0.354,-0.095 -0.634,-0.196 -0.84,-0.305 -0.206,-0.109 -0.354,-0.23 -0.443,-0.362 -0.09,-0.132 -0.135,-0.286 -0.135,-0.46 0,-0.182 0.051,-0.346 0.153,-0.493 0.102,-0.146 0.253,-0.263 0.453,-0.351 0.2,-0.087 0.441,-0.131 0.722,-0.131 0.281,0 0.525,0.052 0.731,0.155 0.206,0.103 0.363,0.246 0.473,0.427 0.109,0.182 0.164,0.388 0.164,0.618 h 0.447 c 0,-0.296 -0.075,-0.564 -0.224,-0.804 -0.149,-0.24 -0.361,-0.429 -0.636,-0.569 -0.275,-0.139 -0.593,-0.209 -0.954,-0.209 -0.344,0 -0.651,0.057 -0.922,0.173 -0.27,0.115 -0.48,0.276 -0.631,0.482 -0.15,0.206 -0.226,0.443 -0.226,0.712 0,0.269 0.068,0.497 0.204,0.685 0.136,0.188 0.328,0.346 0.578,0.473 0.25,0.127 0.566,0.244 0.949,0.351 0.371,0.104 0.66,0.21 0.867,0.318 0.207,0.108 0.356,0.23 0.446,0.367 0.09,0.137 0.135,0.305 0.135,0.504 0,0.196 -0.057,0.37 -0.169,0.522 -0.113,0.151 -0.273,0.268 -0.48,0.351 -0.207,0.083 -0.448,0.124 -0.722,0.124 -0.262,0 -0.508,-0.041 -0.74,-0.122 -0.231,-0.081 -0.421,-0.212 -0.567,-0.393 -0.147,-0.181 -0.22,-0.411 -0.22,-0.692 h -0.451 c 0,0.354 0.096,0.649 0.287,0.887 0.191,0.238 0.438,0.413 0.738,0.527 0.3,0.114 0.618,0.171 0.952,0.171 0.351,0 0.665,-0.056 0.942,-0.167 0.276,-0.111 0.492,-0.271 0.647,-0.48 0.155,-0.208 0.233,-0.453 0.233,-0.734 -0.002,-0.28 -0.069,-0.517 -0.204,-0.714 z"
   id="path106" />
		<g
   id="g170">
			<path
   d="m 7.017,49.943 c 1.307,1.239 3.37,1.183 4.609,-0.123 0.49,-0.517 0.797,-1.18 0.875,-1.888 h 10.024 c 0.197,1.791 1.809,3.083 3.599,2.886 0.985,-0.108 1.868,-0.659 2.399,-1.496 0.963,1.52 2.975,1.972 4.495,1.009 0.407,-0.258 0.752,-0.602 1.009,-1.009 0.963,1.52 2.976,1.972 4.496,1.009 0.407,-0.258 0.751,-0.602 1.009,-1.009 0.961,1.519 2.971,1.972 4.49,1.011 0.179,-0.113 0.347,-0.244 0.5,-0.39 v 2.898 H 7.014 Z m 0,-5.107 c -0.002,-1.237 0.998,-2.24 2.234,-2.243 1.236,-0.002 2.24,0.998 2.243,2.235 v 0.009 2.736 C 11.492,48.809 10.487,49.81 9.251,49.807 8.018,49.804 7.019,48.806 7.017,47.573 Z m 15.486,0.666 v 1.402 h -9.984 v -1.402 z m 5.504,-0.666 v 2.736 c 0,1.237 -1.003,2.238 -2.238,2.238 -1.237,0 -2.239,-1.002 -2.239,-2.238 v -2.736 c 0,-1.237 1.003,-2.239 2.239,-2.239 1.236,0 2.238,1.002 2.238,2.239 z m 5.505,0 v 2.736 c -0.002,1.236 -1.007,2.237 -2.243,2.234 -1.233,-0.003 -2.232,-1.001 -2.234,-2.234 v -2.736 c -0.002,-1.237 0.998,-2.24 2.234,-2.243 1.236,-0.002 2.24,0.998 2.243,2.235 z m 5.505,0 v 2.736 c 0,1.237 -1.003,2.238 -2.238,2.238 -1.237,0 -2.239,-1.002 -2.239,-2.238 v -2.736 c 0,-1.237 1.003,-2.239 2.239,-2.239 1.235,0 2.238,1.002 2.238,2.239 z M 7.015,39.139 c 1.304,1.238 3.363,1.184 4.601,-0.119 0.146,-0.154 0.277,-0.321 0.39,-0.501 0.963,1.52 2.975,1.972 4.495,1.009 0.407,-0.258 0.752,-0.602 1.009,-1.009 0.963,1.52 2.975,1.972 4.495,1.009 0.407,-0.258 0.752,-0.602 1.009,-1.009 0.965,1.521 2.981,1.973 4.502,1.008 0.837,-0.531 1.387,-1.413 1.495,-2.398 h 10.024 c 0.196,1.79 1.806,3.082 3.595,2.886 0.708,-0.077 1.371,-0.385 1.888,-0.875 v 3.324 c -1.303,-1.237 -3.362,-1.184 -4.6,0.119 -0.146,0.154 -0.277,0.322 -0.391,0.502 -0.962,-1.52 -2.974,-1.973 -4.494,-1.011 -0.407,0.258 -0.753,0.603 -1.011,1.011 -0.962,-1.52 -2.974,-1.973 -4.494,-1.011 -0.407,0.258 -0.752,0.603 -1.011,1.011 -0.965,-1.521 -2.981,-1.973 -4.502,-1.008 -0.837,0.53 -1.387,1.413 -1.495,2.398 H 12.497 c -0.195,-1.79 -1.804,-3.082 -3.593,-2.887 -0.709,0.077 -1.373,0.385 -1.89,0.875 z m 0,-5.108 c -0.002,-1.237 0.998,-2.24 2.234,-2.243 1.236,-0.002 2.24,0.998 2.243,2.234 v 0.009 2.736 C 11.49,38.003 10.485,39.004 9.249,39.001 8.017,39 7.018,38.001 7.015,36.768 Z m 9.982,0 v 2.736 C 16.995,38.003 15.99,39.004 14.754,39.001 13.521,38.999 12.522,38 12.52,36.767 v -2.736 c -0.002,-1.237 0.998,-2.24 2.234,-2.243 1.236,-0.002 2.24,0.998 2.243,2.234 z m 5.505,0 v 2.736 c 0,1.237 -1.003,2.238 -2.238,2.238 -1.237,0 -2.239,-1.002 -2.239,-2.238 v -2.736 c 0,-1.237 1.003,-2.239 2.239,-2.239 1.236,0 2.238,1.003 2.238,2.239 z m 5.505,0 v 2.736 c 0,1.237 -1.003,2.238 -2.238,2.238 -1.237,0 -2.239,-1.002 -2.239,-2.238 v -2.736 c 0,-1.237 1.003,-2.239 2.239,-2.239 1.235,0 2.238,1.003 2.238,2.239 z m 11.01,0.667 v 1.403 H 29.033 V 34.698 Z M 7.015,28.335 c 1.306,1.239 3.369,1.184 4.608,-0.121 0.491,-0.517 0.798,-1.181 0.875,-1.89 h 10.024 c 0.197,1.791 1.809,3.083 3.599,2.886 0.985,-0.108 1.868,-0.659 2.399,-1.496 0.963,1.52 2.975,1.972 4.495,1.01 0.407,-0.258 0.752,-0.603 1.009,-1.01 0.963,1.52 2.975,1.972 4.495,1.01 0.407,-0.258 0.752,-0.603 1.009,-1.01 0.961,1.519 2.971,1.972 4.49,1.011 0.18,-0.113 0.347,-0.244 0.501,-0.39 v 3.324 c -1.308,-1.238 -3.371,-1.183 -4.609,0.125 -0.489,0.517 -0.797,1.179 -0.874,1.887 H 29.013 c -0.197,-1.791 -1.809,-3.083 -3.6,-2.886 -0.985,0.109 -1.868,0.659 -2.398,1.496 -0.963,-1.52 -2.975,-1.972 -4.495,-1.01 -0.407,0.258 -0.752,0.603 -1.01,1.01 -0.963,-1.52 -2.975,-1.972 -4.495,-1.01 -0.407,0.258 -0.752,0.603 -1.01,1.01 -0.96,-1.519 -2.971,-1.972 -4.49,-1.011 -0.179,0.113 -0.347,0.244 -0.501,0.39 v -3.325 z m 0,-5.108 c 0.002,-1.236 1.007,-2.237 2.243,-2.234 1.233,0.002 2.232,1.001 2.234,2.234 v 2.736 c 0.002,1.237 -0.998,2.24 -2.234,2.243 -1.236,0.002 -2.24,-0.998 -2.243,-2.234 v -0.009 z m 15.486,0.667 v 1.403 h -9.982 v -1.403 z m 5.505,-0.667 v 2.736 c 0,1.237 -1.003,2.239 -2.238,2.239 -1.237,0 -2.239,-1.002 -2.239,-2.239 v -2.736 c 0,-1.237 1.003,-2.238 2.239,-2.238 1.235,0 2.238,1.001 2.238,2.238 z m 5.504,0 v 2.736 c 0.002,1.237 -0.998,2.24 -2.234,2.243 -1.236,0.002 -2.24,-0.998 -2.243,-2.234 v -0.009 -2.736 c 0.002,-1.236 1.007,-2.237 2.243,-2.234 1.233,0.002 2.232,1.001 2.234,2.234 z m 5.505,0 v 2.736 c 0,1.237 -1.003,2.239 -2.238,2.239 -1.237,0 -2.239,-1.002 -2.239,-2.239 v -2.736 c 0,-1.237 1.003,-2.238 2.239,-2.238 1.235,0 2.238,1.001 2.238,2.238 z M 7.014,17.531 c 1.303,1.238 3.362,1.185 4.6,-0.119 0.146,-0.153 0.277,-0.322 0.391,-0.501 0.963,1.52 2.975,1.972 4.495,1.01 0.407,-0.258 0.752,-0.603 1.009,-1.01 0.963,1.52 2.976,1.972 4.496,1.009 0.407,-0.258 0.751,-0.602 1.009,-1.009 0.965,1.521 2.981,1.973 4.502,1.008 0.837,-0.531 1.387,-1.413 1.495,-2.398 h 10.024 c 0.195,1.79 1.805,3.082 3.595,2.887 0.708,-0.077 1.372,-0.385 1.889,-0.875 v 3.324 c -1.304,-1.237 -3.364,-1.183 -4.601,0.12 -0.146,0.154 -0.277,0.321 -0.39,0.501 -0.963,-1.52 -2.976,-1.972 -4.496,-1.009 -0.407,0.258 -0.751,0.602 -1.009,1.009 -0.963,-1.52 -2.975,-1.972 -4.495,-1.009 -0.407,0.258 -0.752,0.603 -1.01,1.009 -0.965,-1.521 -2.981,-1.973 -4.502,-1.007 -0.837,0.53 -1.387,1.414 -1.495,2.399 H 12.497 C 12.302,21.08 10.692,19.788 8.902,19.983 8.194,20.06 7.53,20.368 7.013,20.858 v -3.327 z m 0,-5.108 c -0.002,-1.236 0.998,-2.24 2.234,-2.242 1.236,-0.002 2.24,0.998 2.243,2.234 v 0.009 2.736 c 0.002,1.237 -0.998,2.24 -2.234,2.243 -1.236,0.002 -2.24,-0.998 -2.243,-2.235 v -0.009 z m 9.981,0 v 2.736 c 0.002,1.237 -0.998,2.24 -2.234,2.243 -1.236,0.002 -2.24,-0.998 -2.243,-2.235 v -0.009 -2.736 c -0.002,-1.236 0.998,-2.24 2.234,-2.242 1.236,-0.002 2.24,0.998 2.243,2.234 z m 5.505,0 v 2.736 c 0,1.237 -1.003,2.239 -2.238,2.239 -1.237,0 -2.239,-1.002 -2.239,-2.239 v -2.736 c 0,-1.237 1.003,-2.238 2.239,-2.238 1.236,-0.001 2.238,1.001 2.238,2.238 z m 5.505,0 v 2.736 c 0,1.237 -1.003,2.239 -2.239,2.239 -1.236,0 -2.238,-1.002 -2.238,-2.239 v -2.736 c 0,-1.237 1.003,-2.238 2.238,-2.238 1.237,-0.001 2.239,1.001 2.239,2.238 z m 11.01,0.666 v 1.403 H 29.033 V 13.089 Z M 7.014,7.152 H 44.52 v 2.898 c -1.306,-1.239 -3.37,-1.183 -4.609,0.124 -0.49,0.517 -0.797,1.18 -0.875,1.888 H 29.013 C 28.816,10.271 27.204,8.979 25.414,9.176 24.429,9.285 23.546,9.835 23.015,10.672 22.052,9.152 20.04,8.7 18.52,9.663 18.113,9.921 17.768,10.266 17.51,10.672 16.547,9.152 14.535,8.7 13.015,9.663 12.608,9.921 12.263,10.266 12.005,10.672 11.046,9.153 9.036,8.7 7.517,9.66 7.338,9.774 7.17,9.904 7.015,10.05 Z m 37.505,8.007 c 0.002,1.237 -0.998,2.24 -2.234,2.243 -1.236,0.002 -2.24,-0.998 -2.243,-2.235 v -0.009 -2.736 c -0.002,-1.236 0.998,-2.24 2.234,-2.242 1.236,-0.002 2.24,0.998 2.243,2.234 v 0.009 z m 0,10.805 c 0.002,1.237 -0.998,2.24 -2.234,2.243 -1.236,0.002 -2.24,-0.998 -2.243,-2.234 v -0.009 -2.736 c 0.002,-1.236 1.007,-2.237 2.243,-2.235 1.233,0.003 2.232,1.001 2.234,2.235 z m 0,10.805 c -0.002,1.237 -1.007,2.237 -2.243,2.235 -1.233,-0.003 -2.232,-1.001 -2.234,-2.235 v -2.736 c -0.002,-1.237 0.998,-2.24 2.234,-2.242 1.236,-0.002 2.24,0.998 2.243,2.234 v 0.009 z m 0,10.805 c -0.002,1.236 -1.007,2.237 -2.243,2.235 -1.233,-0.003 -2.232,-1.001 -2.234,-2.235 v -2.736 c -0.002,-1.237 0.998,-2.24 2.234,-2.243 1.236,-0.003 2.24,0.998 2.243,2.234 v 0.009 z M 5.986,12.426 v 41.446 h 39.56 V 6.128 H 5.986 Z"
   id="path108" />
			<path
   d="m 50.686,49.941 c 1.306,1.239 3.37,1.183 4.609,-0.123 0.49,-0.517 0.797,-1.18 0.875,-1.888 h 4.519 c 0.196,1.79 1.806,3.082 3.596,2.885 0.708,-0.077 1.371,-0.384 1.888,-0.874 v 2.898 H 50.687 Z m 0,-5.108 c -0.002,-1.236 0.998,-2.24 2.234,-2.243 1.236,-0.002 2.24,0.998 2.243,2.235 v 0.008 2.737 c -0.002,1.236 -1.007,2.237 -2.243,2.234 -1.233,-0.002 -2.232,-1.001 -2.234,-2.234 z m 9.982,0.667 v 1.402 H 56.19 V 45.5 Z m -9.982,-6.364 c 1.306,1.239 3.37,1.184 4.609,-0.123 0.49,-0.517 0.797,-1.18 0.875,-1.888 h 4.52 c 0.196,1.79 1.806,3.082 3.595,2.886 0.708,-0.078 1.371,-0.385 1.888,-0.875 v 3.324 c -1.306,-1.239 -3.37,-1.183 -4.609,0.123 -0.49,0.517 -0.797,1.18 -0.875,1.888 h -4.52 c -0.196,-1.789 -1.806,-3.082 -3.595,-2.886 -0.708,0.077 -1.371,0.385 -1.888,0.875 z m 0,-5.107 c -0.002,-1.236 0.998,-2.24 2.234,-2.242 1.236,-0.003 2.24,0.998 2.243,2.234 v 0.009 2.736 C 55.161,38.003 54.156,39.003 52.92,39.001 51.687,38.998 50.688,38 50.686,36.766 Z m 9.982,0.666 v 1.403 H 56.19 v -1.403 z m -9.982,-6.362 c 1.306,1.239 3.37,1.183 4.609,-0.123 0.49,-0.517 0.797,-1.18 0.875,-1.888 h 4.52 c 0.196,1.79 1.806,3.082 3.595,2.886 0.708,-0.077 1.371,-0.385 1.888,-0.875 v 3.324 c -1.308,-1.238 -3.371,-1.182 -4.609,0.125 -0.489,0.517 -0.797,1.179 -0.874,1.887 h -4.52 c -0.196,-1.79 -1.806,-3.082 -3.595,-2.886 -0.708,0.078 -1.371,0.385 -1.888,0.875 v -3.325 z m 0,-5.109 c 0.002,-1.236 1.007,-2.236 2.243,-2.234 1.233,0.002 2.232,1.001 2.234,2.234 v 2.737 c 0.002,1.236 -0.998,2.24 -2.234,2.243 -1.236,0.002 -2.24,-0.998 -2.243,-2.235 v -0.008 z m 9.982,0.667 v 1.402 H 56.19 v -1.402 z m -9.982,-8.374 h 4.498 c 0.197,1.791 1.809,3.083 3.599,2.886 0.985,-0.108 1.868,-0.658 2.398,-1.495 0.961,1.519 2.971,1.972 4.49,1.011 0.18,-0.113 0.348,-0.245 0.502,-0.391 v 3.324 c -1.307,-1.238 -3.371,-1.183 -4.61,0.124 -0.489,0.517 -0.797,1.18 -0.874,1.888 H 56.17 c -0.195,-1.789 -1.805,-3.082 -3.595,-2.887 -0.708,0.077 -1.372,0.385 -1.889,0.875 z m 0,-2.427 h 4.474 v 1.402 h -4.477 z m 9.982,-0.667 v 2.736 c 0,1.237 -1.003,2.239 -2.238,2.239 -1.237,0 -2.239,-1.002 -2.239,-2.239 v -2.736 c 0,-1.237 1.003,-2.238 2.239,-2.238 1.236,0 2.238,1.002 2.238,2.238 z m -9.982,-5.27 h 15.486 v 2.898 c -1.304,-1.238 -3.363,-1.184 -4.601,0.12 -0.146,0.154 -0.277,0.322 -0.391,0.501 -0.965,-1.522 -2.981,-1.973 -4.502,-1.008 -0.837,0.531 -1.387,1.413 -1.495,2.398 h -4.498 z m 15.486,8.006 c 0,1.237 -1.003,2.239 -2.238,2.239 -1.237,0 -2.239,-1.002 -2.239,-2.239 v -2.736 c 0,-1.237 1.003,-2.238 2.239,-2.238 1.236,0 2.238,1.002 2.238,2.238 z m 0,10.806 c 0,1.237 -1.003,2.239 -2.238,2.239 -1.237,0 -2.239,-1.002 -2.239,-2.239 v -2.736 c 0,-1.237 1.003,-2.238 2.239,-2.238 1.236,0 2.238,1.002 2.238,2.238 z m 0,10.805 c 0,1.236 -1.003,2.239 -2.238,2.239 -1.237,0 -2.239,-1.003 -2.239,-2.239 v -2.737 c 0,-1.237 1.003,-2.238 2.239,-2.238 1.236,0 2.238,1.002 2.238,2.238 z m 0,10.805 c 0,1.237 -1.003,2.239 -2.238,2.239 -1.237,0 -2.239,-1.002 -2.239,-2.239 v -2.736 c 0,-1.237 1.003,-2.238 2.239,-2.238 1.236,0 2.238,1.002 2.238,2.238 z M 49.657,23.23 V 53.872 H 67.199 V 6.128 H 49.657 Z"
   id="path110" />
			<path
   d="M 1.877,2.018 H 71.31 V 57.983 H 1.876 Z M 0.85,59.01 H 72.338 V 0.99 H 0.85 Z"
   id="path112" />
			<path
   style="fill:#ff7600"
   d="m 61.694,15.159 v -2.736 c 0,-1.237 1.003,-2.238 2.239,-2.238 1.236,0 2.238,1.002 2.238,2.238 v 2.736 c 0,1.237 -1.003,2.239 -2.238,2.239 -1.236,0 -2.239,-1.002 -2.239,-2.239"
   id="path114" />
			<path
   style="fill:#ff7600"
   d="m 56.191,15.159 v -2.736 c 0,-1.237 1.003,-2.238 2.239,-2.238 1.236,0 2.238,1.002 2.238,2.238 v 2.736 c 0,1.237 -1.003,2.239 -2.238,2.239 -1.237,0 -2.239,-1.002 -2.239,-2.239"
   id="path116" />
			<path
   style="fill:#ff7600"
   d="m 50.686,25.96 v -2.736 c 0,-1.236 1.003,-2.238 2.239,-2.238 1.236,0 2.238,1.002 2.238,2.238 v 2.736 c 0,1.236 -1.003,2.239 -2.238,2.239 -1.237,0 -2.239,-1.003 -2.239,-2.239"
   id="path118" />
			<path
   style="fill:#ff7600"
   d="m 61.696,25.96 v -2.736 c 0,-1.236 1.003,-2.238 2.239,-2.238 1.236,0 2.238,1.002 2.238,2.238 v 2.736 c 0,1.236 -1.003,2.239 -2.238,2.239 -1.236,0 -2.239,-1.003 -2.239,-2.239"
   id="path120" />
			<path
   style="fill:#ff7600"
   d="m 50.686,36.769 v -2.736 c 0,-1.237 1.003,-2.238 2.239,-2.238 1.236,0 2.238,1.002 2.238,2.238 v 2.736 c 0,1.237 -1.003,2.239 -2.238,2.239 -1.237,0 -2.239,-1.002 -2.239,-2.239"
   id="path122" />
			<path
   style="fill:#ff7600"
   d="m 61.696,36.769 v -2.736 c 0,-1.237 1.003,-2.238 2.239,-2.238 1.236,0 2.238,1.002 2.238,2.238 v 2.736 c 0,1.237 -1.003,2.239 -2.238,2.239 -1.236,0 -2.239,-1.002 -2.239,-2.239"
   id="path124" />
			<path
   style="fill:#ff7600"
   d="m 50.686,47.574 v -2.736 c 0,-1.237 1.003,-2.238 2.239,-2.238 1.236,0 2.238,1.002 2.238,2.238 v 2.736 c 0,1.237 -1.003,2.239 -2.238,2.239 -1.237,0 -2.239,-1.002 -2.239,-2.239"
   id="path126" />
			<path
   style="fill:#ff7600"
   d="m 61.696,47.574 v -2.736 c 0,-1.237 1.003,-2.238 2.239,-2.238 1.236,0 2.238,1.002 2.238,2.238 v 2.736 c 0,1.237 -1.003,2.239 -2.238,2.239 -1.236,0 -2.239,-1.002 -2.239,-2.239"
   id="path128" />
			<path
   style="fill:#00a3fd"
   d="m 40.042,15.159 v -2.736 c 0,-1.237 1.003,-2.238 2.239,-2.238 1.236,0 2.238,1.002 2.238,2.238 v 2.736 c 0,1.237 -1.003,2.239 -2.238,2.239 -1.237,0 -2.239,-1.003 -2.239,-2.239"
   id="path130" />
			<path
   style="fill:#00a3fd"
   d="m 23.528,15.159 v -2.736 c 0,-1.237 1.003,-2.238 2.238,-2.238 1.237,0 2.239,1.002 2.239,2.238 v 2.736 c 0,1.237 -1.003,2.239 -2.239,2.239 -1.236,0 -2.238,-1.003 -2.238,-2.239"
   id="path132" />
			<path
   style="fill:#00a3fd"
   d="m 18.023,15.159 v -2.736 c 0,-1.237 1.003,-2.238 2.239,-2.238 1.236,0 2.238,1.002 2.238,2.238 v 2.736 c 0,1.237 -1.003,2.239 -2.238,2.239 -1.237,0 -2.239,-1.003 -2.239,-2.239"
   id="path134" />
			<path
   style="fill:#00a3fd"
   d="m 12.518,15.159 v -2.736 c 0,-1.237 1.003,-2.238 2.239,-2.238 1.236,0 2.238,1.002 2.238,2.238 v 2.736 c 0,1.237 -1.003,2.239 -2.238,2.239 -1.237,0 -2.239,-1.003 -2.239,-2.239"
   id="path136" />
			<path
   style="fill:#00a3fd"
   d="m 7.013,15.159 v -2.736 c 0,-1.237 1.003,-2.238 2.239,-2.238 1.236,0 2.238,1.002 2.238,2.238 v 2.736 c 0,1.237 -1.003,2.239 -2.238,2.239 -1.237,0 -2.239,-1.003 -2.239,-2.239"
   id="path138" />
			<path
   style="fill:#00a3fd"
   d="m 40.042,25.963 v -2.736 c 0,-1.237 1.003,-2.238 2.239,-2.238 1.236,0 2.238,1.002 2.238,2.238 v 2.736 c 0,1.237 -1.003,2.239 -2.238,2.239 -1.237,0 -2.239,-1.002 -2.239,-2.239"
   id="path140" />
			<path
   style="fill:#00a3fd"
   d="m 34.537,25.963 v -2.736 c 0,-1.237 1.003,-2.238 2.239,-2.238 1.236,0 2.238,1.002 2.238,2.238 v 2.736 c 0,1.237 -1.003,2.239 -2.238,2.239 -1.237,0 -2.239,-1.002 -2.239,-2.239"
   id="path142" />
			<path
   style="fill:#00a3fd"
   d="m 29.032,25.963 v -2.736 c 0,-1.237 1.003,-2.238 2.239,-2.238 1.236,0 2.238,1.002 2.238,2.238 v 2.736 c 0,1.237 -1.003,2.239 -2.238,2.239 -1.237,0 -2.239,-1.002 -2.239,-2.239"
   id="path144" />
			<path
   style="fill:#00a3fd"
   d="m 23.527,25.963 v -2.736 c 0,-1.237 1.003,-2.238 2.239,-2.238 1.236,0 2.238,1.002 2.238,2.238 v 2.736 c 0,1.237 -1.003,2.239 -2.238,2.239 -1.236,0 -2.239,-1.002 -2.239,-2.239"
   id="path146" />
			<path
   style="fill:#00a3fd"
   d="m 23.529,36.767 v -2.736 c 0,-1.237 1.003,-2.239 2.239,-2.239 1.236,0 2.238,1.002 2.238,2.239 v 2.736 c 0,1.237 -1.003,2.238 -2.238,2.238 -1.236,10e-4 -2.239,-1.001 -2.239,-2.238"
   id="path148" />
			<path
   style="fill:#00a3fd"
   d="m 18.024,36.767 v -2.736 c 0,-1.237 1.003,-2.239 2.239,-2.239 1.236,0 2.238,1.002 2.238,2.239 v 2.736 c 0,1.237 -1.003,2.238 -2.238,2.238 -1.236,10e-4 -2.239,-1.001 -2.239,-2.238"
   id="path150" />
			<path
   style="fill:#00a3fd"
   d="m 12.52,36.767 v -2.736 c 0,-1.237 1.003,-2.239 2.239,-2.239 1.236,0 2.238,1.002 2.238,2.239 v 2.736 c 0,1.237 -1.003,2.238 -2.238,2.238 -1.237,10e-4 -2.239,-1.001 -2.239,-2.238"
   id="path152" />
			<path
   style="fill:#00a3fd"
   d="m 7.015,36.767 v -2.736 c 0,-1.237 1.003,-2.239 2.239,-2.239 1.236,0 2.238,1.002 2.238,2.239 v 2.736 c 0,1.237 -1.003,2.238 -2.238,2.238 -1.237,10e-4 -2.239,-1.001 -2.239,-2.238"
   id="path154" />
			<path
   style="fill:#00a3fd"
   d="m 7.013,25.963 v -2.736 c 0,-1.237 1.003,-2.238 2.239,-2.238 1.236,0 2.238,1.002 2.238,2.238 v 2.736 c 0,1.237 -1.003,2.239 -2.238,2.239 -1.237,0 -2.239,-1.003 -2.239,-2.239"
   id="path156" />
			<path
   style="fill:#00a3fd"
   d="m 40.042,47.57 v -2.736 c 0,-1.236 1.003,-2.238 2.239,-2.238 1.236,0 2.238,1.002 2.238,2.238 v 2.736 c 0,1.236 -1.003,2.239 -2.238,2.239 -1.237,0 -2.239,-1.003 -2.239,-2.239"
   id="path158" />
			<path
   style="fill:#00a3fd"
   d="m 34.537,47.57 v -2.736 c 0,-1.236 1.003,-2.238 2.239,-2.238 1.236,0 2.238,1.002 2.238,2.238 v 2.736 c 0,1.236 -1.003,2.239 -2.238,2.239 -1.237,0 -2.239,-1.003 -2.239,-2.239"
   id="path160" />
			<path
   style="fill:#00a3fd"
   d="m 29.032,47.57 v -2.736 c 0,-1.236 1.003,-2.238 2.239,-2.238 1.236,0 2.238,1.002 2.238,2.238 v 2.736 c 0,1.236 -1.003,2.239 -2.238,2.239 -1.237,0 -2.239,-1.003 -2.239,-2.239"
   id="path162" />
			<path
   style="fill:#00a3fd"
   d="m 23.527,47.57 v -2.736 c 0,-1.236 1.003,-2.238 2.239,-2.238 1.236,0 2.238,1.002 2.238,2.238 v 2.736 c 0,1.236 -1.003,2.239 -2.238,2.239 -1.236,0 -2.239,-1.003 -2.239,-2.239"
   id="path164" />
			<path
   style="fill:#00a3fd"
   d="m 7.013,47.569 v -2.736 c 0,-1.236 1.003,-2.238 2.239,-2.238 1.236,0 2.238,1.002 2.238,2.238 v 2.736 c 0,1.236 -1.003,2.239 -2.238,2.239 -1.237,0 -2.239,-1.002 -2.239,-2.239"
   id="path166" />
			<path
   style="fill:#00a3fd"
   d="m 40.042,36.76 v -2.736 c 0,-1.236 1.003,-2.238 2.239,-2.238 1.236,0 2.238,1.002 2.238,2.238 v 2.736 c 0,1.236 -1.003,2.239 -2.238,2.239 -1.237,0 -2.239,-1.003 -2.239,-2.239"
   id="path168" />
		</g>
	</g></svg>
